# xmcd
# 
# Track frame offsets:
#     150
#     15072
#     32610
#     52632
#     69430
#     88902
#     106685
#     122612
#     139605
#     155332
#     174510
# 
# Disc length: 2519
# 
# Revision: 5
# Processed by: cddbd v1.5.2PL0 Copyright (c) Steve Scherf et al.
# Submitted via: BonkEnc v1.0.8
# 
DISCID=7409d50b
DTITLE=楊千嬅 - Miriam
DYEAR=2001
DGENRE=Pop
TTITLE0=熱血青年
TTITLE1=照相本子
TTITLE2=姊妹
TTITLE3=野孩子
TTITLE4=罐頭湯
TTITLE5=紫色
TTITLE6=深紫色
TTITLE7=悲歌之王
TTITLE8=假如讓我說下去
TTITLE9=河童
TTITLE10=亂唱的歌
EXTD=YEAR: 2001 ID3G:  28
EXTT0=
EXTT1=
EXTT2=
EXTT3=
EXTT4=
EXTT5=
EXTT6=
EXTT7=
EXTT8=
EXTT9=
EXTT10=
PLAYORDER=
